<svg xmlns="http://www.w3.org/2000/svg" viewBox="34.464 383.7 17.868 18.829">
  <defs>
    <style>
      .cls-1 {
        fill: #583318;
      }
    </style>
  </defs>
  <g id="noun_24794_cc" transform="translate(34.464 383.7)">
    <path id="Path_39" data-name="Path 39" class="cls-1" d="M53.608,50.3a5.856,5.856,0,1,0-9.1-1.384c.079.138.164.27.261.417a5.963,5.963,0,0,0,.835.968,8.985,8.985,0,0,0-4.928,7.333A1.274,1.274,0,0,0,41.946,59H57.265a1.274,1.274,0,0,0,1.271-1.369A8.99,8.99,0,0,0,53.608,50.3Zm-5.47-1.3c-.088-.046-.174-.092-.261-.146a3.313,3.313,0,0,1-1-.948c-.054-.079-.106-.16-.153-.241a3.268,3.268,0,0,1-.43-1.628,3.311,3.311,0,1,1,3.317,3.311H49.6A3.258,3.258,0,0,1,48.137,48.993ZM43.47,56.451A6.442,6.442,0,0,1,49.6,51.888h.014a6.44,6.44,0,0,1,6.128,4.562Z" transform="translate(-40.671 -40.17)"/>
  </g>
</svg>
