<svg xmlns="http://www.w3.org/2000/svg" viewBox="1095.934 1322.558 26.175 32.641">
  <defs>
    <style>
      .cls-1 {
        fill: #fff;
      }
    </style>
  </defs>
  <g id="noun_91013_cc" transform="translate(1078.891 1312.615)">
    <g id="Group_1124" data-name="Group 1124" transform="translate(21.854 10.368)">
      <path id="Path_792" data-name="Path 792" class="cls-1" d="M32.2,26.009,28.8,11.522s4.706-1.514,7.858.532,10.19-.123,10.19-.123l3.315,14.9s-5.2,2.046-9.7,0A12.4,12.4,0,0,0,32.2,26.009Z" transform="translate(-28.8 -10.982)"/>
    </g>
    <g id="Group_1125" data-name="Group 1125" transform="translate(17.043 9.943)">
      <path id="Path_793" data-name="Path 793" class="cls-1" d="M24.965,42.584a1.175,1.175,0,0,1-1.146-.941L17.066,11.358a1.172,1.172,0,1,1,2.292-.491l6.753,30.285a1.149,1.149,0,0,1-.9,1.391A.519.519,0,0,1,24.965,42.584Z" transform="translate(-17.043 -9.943)"/>
    </g>
  </g>
</svg>
