<svg xmlns="http://www.w3.org/2000/svg" viewBox="973.669 811.494 35.752 33.735">
  <defs>
    <style>
      .cls-1 {
        fill: #999;
      }
    </style>
  </defs>
  <g id="noun_642295_cc" transform="translate(973.669 811.494)">
    <g id="Group_1111" data-name="Group 1111" transform="translate(0 0)">
      <path id="Path_789" data-name="Path 789" class="cls-1" d="M4.437,0A4.437,4.437,0,1,1,0,4.437,4.437,4.437,0,0,1,4.437,0Z" transform="translate(12.986 9.694) rotate(-76.891)"/>
      <path id="Path_788" data-name="Path 788" class="cls-1" d="M37.284.249a.325.325,0,0,0-.423-.18l-1.527.59a1.908,1.908,0,0,0-2.913,1.134,10.062,10.062,0,0,0-2.112,1.551A13.651,13.651,0,0,1,27.7,4.69a.094.094,0,0,0-.119-.039.093.093,0,0,0-.061.113l-.225.09-.028-.073c-.155.06-.254.178-.193.333l.243.631c.06.155.212.176.367.116l-.028-.073L27.88,5.7a.1.1,0,0,0,.183-.066A13.614,13.614,0,0,1,30.9,4.878a19.539,19.539,0,0,0,2.082-.134A8.494,8.494,0,0,1,33.135,6.3a5.428,5.428,0,0,1-.99,3.263,8.254,8.254,0,0,1-3.684,2.669,12.674,12.674,0,0,1-1.671.537c-.211.052-.378.087-.486.107l-.116.021-.017,0h0a1.9,1.9,0,0,0-.3.072,1.933,1.933,0,0,0-.408-.044H16.193c-.8-.912-2.233-2.511-4.062-4.336a67.159,67.159,0,0,0-6.846-6.01A1.669,1.669,0,0,0,2.708,2.9c-.52.918-.46,2.167,1.113,3.377A61.309,61.309,0,0,1,9.43,11.3c1.351,1.347,2.485,2.575,3.279,3.461.4.443.708.8.918,1.046.105.122.186.217.238.279l.031.037v15.8c.671,2.584,13.833,2.393,13.492,0V16.552a15.915,15.915,0,0,0,4.306-1.642,10.981,10.981,0,0,0,3.567-3.135,9.282,9.282,0,0,0,1.7-5.476,12.737,12.737,0,0,0-.349-2.881l1.346-.52a.325.325,0,0,0,.192-.418Z" transform="translate(-2.415 -0.046)"/>
    </g>
  </g>
</svg>
