<svg xmlns="http://www.w3.org/2000/svg" xmlns:xlink="http://www.w3.org/1999/xlink" viewBox="271.827 869.929 28.497 19.768">
  <defs>
    <style>
      .cls-1 {
        fill: none;
      }

      .cls-2 {
        clip-path: url(#clip-path);
      }

      .cls-3 {
        fill: #563316;
      }
    </style>
    <clipPath id="clip-path">
      <path id="Path_84" data-name="Path 84" class="cls-1" d="M0-381.625H28.5v19.768H0Z" transform="translate(0 381.625)"/>
    </clipPath>
  </defs>
  <g id="Group_95" data-name="Group 95" transform="translate(271.827 869.929)">
    <g id="Group_94" data-name="Group 94" class="cls-2">
      <g id="Group_91" data-name="Group 91" transform="translate(0.363 0.363)">
        <path id="Path_81" data-name="Path 81" class="cls-3" d="M-254.186-321.973c-7.3,0-11.455-6.527-12.327-8.068.872-1.541,5.03-8.068,12.327-8.068s11.455,6.527,12.327,8.068c-.872,1.541-5.03,8.068-12.327,8.068m13.81-8.387a19.574,19.574,0,0,0-3.416-4.593,14.6,14.6,0,0,0-10.393-4.608,14.6,14.6,0,0,0-10.393,4.608,19.279,19.279,0,0,0-3.416,4.593.709.709,0,0,0,0,.64,19.575,19.575,0,0,0,3.416,4.594,14.6,14.6,0,0,0,10.393,4.608,14.6,14.6,0,0,0,10.393-4.608,19.279,19.279,0,0,0,3.416-4.594.709.709,0,0,0,0-.64" transform="translate(268.071 339.562)"/>
      </g>
      <g id="Group_92" data-name="Group 92" transform="translate(0 0)">
        <path id="Path_82" data-name="Path 82" class="cls-3" d="M-42.846-180.928c.967,1.643,5.005,7.705,11.908,7.705S-20-179.285-19.03-180.928c-.967-1.643-5-7.705-11.908-7.705s-10.941,6.062-11.908,7.705m11.908,8.43a13.067,13.067,0,0,1-8.813-3.547,19.158,19.158,0,0,1-3.829-4.7l-.1-.179.1-.179a19.159,19.159,0,0,1,3.829-4.7,13.067,13.067,0,0,1,8.813-3.547,13.067,13.067,0,0,1,8.813,3.547,19.158,19.158,0,0,1,3.829,4.7l.1.179-.1.179a19.158,19.158,0,0,1-3.829,4.7,13.067,13.067,0,0,1-8.813,3.547m-13.487-8.276a19.131,19.131,0,0,0,3.35,4.5,14.249,14.249,0,0,0,10.137,4.5,14.249,14.249,0,0,0,10.137-4.5,18.9,18.9,0,0,0,3.35-4.5.344.344,0,0,0,0-.308,19.129,19.129,0,0,0-3.35-4.5,14.249,14.249,0,0,0-10.137-4.5,14.249,14.249,0,0,0-10.137,4.5,18.905,18.905,0,0,0-3.35,4.5.345.345,0,0,0,0,.308m13.487,9.73a14.958,14.958,0,0,1-10.65-4.714,19.855,19.855,0,0,1-3.479-4.679l0-.009a1.069,1.069,0,0,1,0-.964l0-.008a19.627,19.627,0,0,1,3.48-4.68,14.958,14.958,0,0,1,10.65-4.714,14.958,14.958,0,0,1,10.65,4.714,19.857,19.857,0,0,1,3.479,4.679l0,.009a1.069,1.069,0,0,1,0,.964l0,.008a19.626,19.626,0,0,1-3.48,4.68,14.958,14.958,0,0,1-10.65,4.714" transform="translate(45.186 190.812)"/>
      </g>
      <g id="Group_93" data-name="Group 93" transform="translate(8.934 4.57)">
        <path id="Path_83" data-name="Path 83" class="cls-3" d="M-157.447-104.658a.623.623,0,0,1-.63-.63,2.725,2.725,0,0,0-2.72-2.72.624.624,0,0,1-.63-.63.624.624,0,0,1,.63-.63,3.98,3.98,0,0,1,3.979,3.979.631.631,0,0,1-.63.63m-3.287-5.717a5.315,5.315,0,0,0-5.314,5.314,5.315,5.315,0,0,0,5.314,5.314,5.315,5.315,0,0,0,5.314-5.314,5.315,5.315,0,0,0-5.314-5.314" transform="translate(166.048 110.375)"/>
      </g>
    </g>
  </g>
</svg>
