<svg xmlns="http://www.w3.org/2000/svg" viewBox="1151.139 939.754 12.384 21.999">
  <defs>
    <style>
      .cls-1 {
        fill: #563316;
      }
    </style>
  </defs>
  <g id="Group_1119" data-name="Group 1119" transform="translate(1163.523 939.754) rotate(90)">
    <path id="Path_758" data-name="Path 758" class="cls-1" d="M-193.828-6.58a1.377,1.377,0,0,0-.98-.406,1.359,1.359,0,0,0-.981.41L-205.4,3.038a1.391,1.391,0,0,0,0,1.955,1.373,1.373,0,0,0,.978.4h0a1.387,1.387,0,0,0,.98-.4l8.639-8.638,8.637,8.636a1.379,1.379,0,0,0,.982.407,1.378,1.378,0,0,0,.972-.4,1.372,1.372,0,0,0,.41-.985,1.373,1.373,0,0,0-.4-.978Z" transform="translate(205.804 6.986)"/>
  </g>
</svg>
