<svg xmlns="http://www.w3.org/2000/svg" xmlns:xlink="http://www.w3.org/1999/xlink" viewBox="312.46 164.586 35.399 19.719">
  <defs>
    <style>
      .cls-1 {
        fill: none;
      }

      .cls-2 {
        clip-path: url(#clip-path);
      }

      .cls-3 {
        fill: #583318;
      }
    </style>
    <clipPath id="clip-path">
      <path id="Path_35" data-name="Path 35" class="cls-1" d="M0-319.1H35.4v19.719H0Z" transform="translate(0 319.098)"/>
    </clipPath>
  </defs>
  <g id="Group_43" data-name="Group 43" transform="translate(312.46 164.586)">
    <g id="Group_42" data-name="Group 42" class="cls-2">
      <g id="Group_40" data-name="Group 40" transform="translate(0 0)">
        <path id="Path_33" data-name="Path 33" class="cls-3" d="M-488.569-208.721a4.24,4.24,0,0,0-3.782,3.9l-19.491-.057a4.233,4.233,0,0,0-3.769-3.892l.018-7.771a3.991,3.991,0,0,0,3.769-3.86l19.5.057c.564,2.584,1.5,3.54,3.775,3.86Zm2.511-13.659-32-.089a1.707,1.707,0,0,0-1.686,1.729l-.037,16.172a1.707,1.707,0,0,0,1.674,1.735l32.008.083a1.7,1.7,0,0,0,1.68-1.723l.037-16.179a1.7,1.7,0,0,0-1.674-1.729" transform="translate(519.783 222.469)"/>
      </g>
      <g id="Group_41" data-name="Group 41" transform="translate(11.438 3.419)">
        <path id="Path_34" data-name="Path 34" class="cls-3" d="M-134.3-128.521a1.756,1.756,0,0,1-1.321,1.5,5.566,5.566,0,0,1-.558.128v.925h-.75v-.912c-1.488-.338-2.133-1.046-2.021-2.22h1.3c.013.083.025.166.031.243a.908.908,0,0,0,.868.867,1.4,1.4,0,0,0,.285.006.764.764,0,0,0,.781-.549.923.923,0,0,0-.3-1.053,7.336,7.336,0,0,0-.8-.408,9.385,9.385,0,0,1-1.24-.657,1.921,1.921,0,0,1,.267-3.19,7.25,7.25,0,0,1,.911-.319v-.963h.744v1.014a2.066,2.066,0,0,1,1.544.983,2.084,2.084,0,0,1,.248,1.161h-1.314a3.935,3.935,0,0,0-.1-.5.794.794,0,0,0-.843-.574.7.7,0,0,0-.75.511.891.891,0,0,0,.267,1.053,7.316,7.316,0,0,0,.856.453,11.189,11.189,0,0,1,1.1.561,1.839,1.839,0,0,1,.794,1.946m-2.3-8.465a6.359,6.359,0,0,0-6.28,6.425,6.363,6.363,0,0,0,6.249,6.462,6.352,6.352,0,0,0,6.274-6.43,6.356,6.356,0,0,0-6.243-6.456" transform="translate(142.879 136.986)"/>
      </g>
    </g>
  </g>
</svg>
