<svg id="Group_1130" data-name="Group 1130" xmlns="http://www.w3.org/2000/svg" viewBox="270.21 226.452 28.95 33.707">
  <defs>
    <style>
      .cls-1 {
        fill: #563316;
      }
    </style>
  </defs>
  <g id="noun_714309_cc" transform="translate(278.79 244.385)">
    <g id="group" transform="translate(-8.754 -1.84)">
      <g id="Group_1129" data-name="Group 1129">
        <g id="group-2" data-name="group" transform="translate(10.164 -0.955)">
          <path id="path" class="cls-1" d="M-14.683-29.366h3.205a.694.694,0,0,0,.677-.677.694.694,0,0,0-.677-.677h-3.205a.694.694,0,0,0-.677.677.694.694,0,0,0,.677.677" transform="translate(15.36 30.72)"/>
        </g>
        <g id="group-3" data-name="group" transform="translate(0.174 2.618)">
          <path id="path-2" data-name="path" class="cls-1" d="M-14.683-29.366H-.825a.694.694,0,0,0,.677-.677.694.694,0,0,0-.677-.677H-14.683a.694.694,0,0,0-.677.677.665.665,0,0,0,.677.677" transform="translate(15.36 30.72)"/>
        </g>
        <g id="group-4" data-name="group" transform="translate(11 10.292)">
          <path id="path-3" data-name="path" class="cls-1" d="M-85.161-14.683a.694.694,0,0,0-.677-.677h-2.573a.694.694,0,0,0-.677.677.694.694,0,0,0,.677.677h2.573a.665.665,0,0,0,.677-.677" transform="translate(89.088 15.36)"/>
        </g>
        <g id="group-5" data-name="group" transform="translate(6.591 6.591)">
          <path id="path-4" data-name="path" class="cls-1" d="M-167.385-29.366a.694.694,0,0,0,.677-.677.694.694,0,0,0-.677-.677h-7.042a.694.694,0,0,0-.677.677.694.694,0,0,0,.677.677Z" transform="translate(175.104 30.72)"/>
        </g>
      </g>
    </g>
  </g>
  <g id="Group_1126" data-name="Group 1126" transform="translate(288.82 226.452)">
    <path id="Path_794" data-name="Path 794" class="cls-1" d="M40.652,36.407c-4.229,0-5.006-1.275-5.145-1.824a.91.91,0,0,1-.029-.217V19.227a4.339,4.339,0,0,1,.83-2.277l.1-.164c.581-.919.8-1.261.926-4.421.11-2.679.378-4.852.513-5.825a.885.885,0,0,1-.264-.894l.16-.588a.9.9,0,0,1-.171-.481,1.921,1.921,0,0,1,.474-1.4A1.545,1.545,0,0,1,39.209,2.7h2.879a1.545,1.545,0,0,1,1.158.474,1.921,1.921,0,0,1,.474,1.4.885.885,0,0,1-.171.485l.16.588a.89.89,0,0,1-.264.894c.135.973.4,3.146.513,5.825.128,3.16.346,3.5.926,4.421l.1.167a4.339,4.339,0,0,1,.83,2.277V34.372a.887.887,0,0,1-.029.217C45.658,35.131,44.881,36.407,40.652,36.407ZM37.26,34.055c.257.175,1.09.57,3.392.57s3.135-.4,3.392-.57V19.192a3.331,3.331,0,0,0-.559-1.29l-.1-.16c-.78-1.236-1.058-1.842-1.2-5.3a56.988,56.988,0,0,0-.574-6.16.9.9,0,0,1,.228-.748l-.207-.762a.884.884,0,0,1-.029-.289H39.7a.884.884,0,0,1-.028.289l-.207.762a.9.9,0,0,1,.228.748,58.36,58.36,0,0,0-.574,6.16c-.143,3.459-.42,4.061-1.2,5.3l-.1.16a3.493,3.493,0,0,0-.559,1.29V34.055Zm0-14.888Zm6.783,0Z" transform="translate(-35.479 -2.7)"/>
  </g>
  <g id="Group_1127" data-name="Group 1127" transform="translate(289.572 243.734)">
    <path id="Path_795" data-name="Path 795" class="cls-1" d="M42.011,63.084c-2.44,0-4.421-2.665-4.421-5.939s1.981-5.935,4.421-5.935,4.421,2.665,4.421,5.939S44.452,63.084,42.011,63.084Zm0-10.806c-1.849,0-3.352,2.184-3.352,4.87s1.5,4.867,3.352,4.867,3.352-2.184,3.352-4.87S43.86,52.279,42.011,52.279Z" transform="translate(-37.59 -51.21)"/>
  </g>
</svg>
