<svg xmlns="http://www.w3.org/2000/svg" viewBox="313.767 594.532 26.052 18.657">
  <defs>
    <style>
      .cls-1 {
        fill: #583318;
      }
    </style>
  </defs>
  <g id="noun_630392_cc" transform="translate(312.267 589.1)">
    <g id="group" transform="translate(1.5 5.432)">
      <rect id="rectangle" class="cls-1" width="26.052" height="2.689" transform="translate(0 5.715)"/>
      <path id="path" class="cls-1" d="M.5,23.039a2.4,2.4,0,0,0,2.353,2.353H24.2a2.4,2.4,0,0,0,2.353-2.353V16.4H.5v6.639ZM14.45,20.6h1.008a.672.672,0,1,1,0,1.345H14.45a.663.663,0,0,1-.672-.672C13.862,20.854,14.114,20.6,14.45,20.6Zm-3.193,0h1.008a.672.672,0,1,1,0,1.345H11.257a.672.672,0,1,1,0-1.345Zm-3.193,0H9.072a.672.672,0,1,1,0,1.345H8.063a.663.663,0,0,1-.672-.672A.619.619,0,0,1,8.063,20.6Zm-3.278,0H5.794a.672.672,0,1,1,0,1.345H4.786a.663.663,0,0,1-.672-.672C4.2,20.854,4.45,20.6,4.786,20.6Z" transform="translate(-0.5 -6.736)"/>
      <path id="path-2" data-name="path" class="cls-1" d="M26.552,7.253A2.4,2.4,0,0,0,24.2,4.9H2.853A2.4,2.4,0,0,0,.5,7.253v2.1H26.552Z" transform="translate(-0.5 -4.9)"/>
    </g>
  </g>
</svg>
