<svg xmlns="http://www.w3.org/2000/svg" viewBox="626.051 250.352 19.239 19.309">
  <defs>
    <style>
      .cls-1 {
        fill: #563316;
      }
    </style>
  </defs>
  <g id="Group_126" data-name="Group 126" transform="translate(626.051 250.352)">
    <g id="Group_125" data-name="Group 125" transform="translate(0 0)">
      <path id="Path_106" data-name="Path 106" class="cls-1" d="M-454.133-505.86a1.34,1.34,0,0,1-.73-.236,15.059,15.059,0,0,1-5.305-5.219,1.724,1.724,0,0,1-.365-1.224c.15-.816,1.181-1.138,1.482-1.912a2.135,2.135,0,0,0-.515-2,9.2,9.2,0,0,0-2.642-2.427,3.677,3.677,0,0,0-1.611-.6c-2.6-.129-2.749,4.21-2.406,5.907a13.515,13.515,0,0,0,2.277,4.876,20.467,20.467,0,0,0,9.794,7.925,7.953,7.953,0,0,0,4.4.451,3.734,3.734,0,0,0,1.933-1.053,2.409,2.409,0,0,0,.666-2.04,3.793,3.793,0,0,0-1.16-1.89,15.318,15.318,0,0,0-2.491-2.062,1.33,1.33,0,0,0-.537-.236,1.054,1.054,0,0,0-.6.193,7.326,7.326,0,0,0-1.461,1.074,1.328,1.328,0,0,1-.666.43c-.021.021-.043.043-.064.043" transform="translate(466.361 519.48)"/>
    </g>
  </g>
</svg>
