<svg xmlns="http://www.w3.org/2000/svg" viewBox="948.483 898.682 17.17 17.17">
  <defs>
    <style>
      .cls-1 {
        fill: #fff;
      }
    </style>
  </defs>
  <g id="noun_781269_cc" transform="translate(948.483 898.682)">
    <g id="Group_130" data-name="Group 130" transform="translate(0 0)">
      <path id="Path_108" data-name="Path 108" class="cls-1" d="M30.585,974.362a8.585,8.585,0,1,0,8.585,8.585A8.6,8.6,0,0,0,30.585,974.362Zm0,1.84a6.745,6.745,0,1,1-6.745,6.745A6.731,6.731,0,0,1,30.585,976.2Zm0,1.226a.92.92,0,0,0-.92.92v4.6a.919.919,0,0,0,.46.8l3.449,1.993a.919.919,0,1,0,.92-1.59L31.5,982.42v-4.072A.92.92,0,0,0,30.585,977.428Z" transform="translate(-22 -974.362)"/>
    </g>
  </g>
</svg>
