<svg xmlns="http://www.w3.org/2000/svg" viewBox="839 1349.644 22.339 19.362">
  <defs>
    <style>
      .cls-1 {
        fill: #563316;
      }
    </style>
  </defs>
  <g id="noun_1062251_cc" transform="translate(834 1338.644)">
    <path id="Path_790" data-name="Path 790" class="cls-1" d="M11.95,11a2.979,2.979,0,1,0,2.878,3.723h8.416a2.584,2.584,0,0,1,2.606,2.606,2.714,2.714,0,0,1-2.73,2.606.745.745,0,1,0,0,1.489,4.189,4.189,0,0,0,4.22-4.1,4.1,4.1,0,0,0-4.1-4.1H14.827A2.989,2.989,0,0,0,11.95,11Zm0,1.489a1.489,1.489,0,1,1-1.489,1.489A1.478,1.478,0,0,1,11.95,12.489ZM9.1,19.935a4.1,4.1,0,1,0,0,8.191h4.778l-.962.962a.746.746,0,0,0,1.055,1.055L16.2,27.909a.745.745,0,0,0,0-1.055L13.967,24.62a.746.746,0,1,0-1.055,1.055l.962.962H9.1a2.606,2.606,0,1,1,0-5.212H20.637a.745.745,0,1,0,0-1.489ZM20.389,24.4a2.978,2.978,0,1,0,2.978,2.978A2.99,2.99,0,0,0,20.389,24.4Zm0,1.489A1.489,1.489,0,1,1,18.9,27.382,1.478,1.478,0,0,1,20.389,25.892Z"/>
  </g>
</svg>
